<svg xmlns="http://www.w3.org/2000/svg" version="1.1" xmlns:xlink="http://www.w3.org/1999/xlink" xmlns:svgjs="http://svgjs.dev/svgjs" width="2000" height="520" viewBox="0 0 2000 520"><g transform="matrix(1,0,0,1,-1.2121212121212466,-0.3638499123289307)"><svg viewBox="0 0 396 103" data-background-color="#ffffff" preserveAspectRatio="xMidYMid meet" height="520" width="2000" xmlns="http://www.w3.org/2000/svg" xmlns:xlink="http://www.w3.org/1999/xlink"><g id="tight-bounds" transform="matrix(1,0,0,1,0.2400000000000091,0.07207027109592445)"><svg viewBox="0 0 395.52 102.85585945780815" height="102.85585945780815" width="395.52"><g><svg viewBox="0 0 584.525907474284 152.0072678717201" height="102.85585945780815" width="395.52"><g transform="matrix(1,0,0,1,189.00590747428404,21.008240349854226)"><svg viewBox="0 0 395.52 109.99078717201165" height="109.99078717201165" width="395.52"><g id="textblocktransform"><svg viewBox="0 0 395.52 109.99078717201165" height="109.99078717201165" width="395.52" id="textblock"><g><svg viewBox="0 0 395.52 109.99078717201165" height="109.99078717201165" width="395.52"><g transform="matrix(1,0,0,1,0,0)"><svg width="395.52" viewBox="2.450000047683716 -37.75 137.19000244140625 38.15416717529297" height="109.99078717201165" data-palette-color="#2a3139"><path d="M2.45-31.15L2.45-36.3 26.65-36.3 26.65-31.15 17.1-31.15 17.1 0 11.75 0 11.75-31.15 2.45-31.15ZM32.9 0L27.65 0 43.6-37.75 43.9-37.75 59.85 0 53.75 0 42.15-29.4 46-31.95 32.9 0ZM35.75-9L37.35-13.6 50.25-13.6 52.1-9 35.75-9ZM71.5 0L66.34 0 66.34-37.5 66.4-37.5 85.7-10.15 83.4-10.65 102.59-37.5 102.7-37.5 102.7 0 97.4 0 97.4-25.45 97.75-22.7 84.34-3.75 84.25-3.75 70.59-22.7 71.5-25.2 71.5 0ZM137.39-7.55L139.64-2.75Q138.84-2.2 137.27-1.43 135.69-0.65 133.57-0.1 131.44 0.45 128.89 0.4L128.89 0.4Q124.64 0.35 121.27-1.1 117.89-2.55 115.54-5.08 113.19-7.6 111.92-10.88 110.64-14.15 110.64-17.85L110.64-17.85Q110.64-21.95 111.94-25.38 113.24-28.8 115.67-31.35 118.09-33.9 121.37-35.3 124.64-36.7 128.54-36.7L128.54-36.7Q131.89-36.7 134.59-35.8 137.29-34.9 139.14-33.7L139.14-33.7 137.04-28.7Q135.59-29.7 133.47-30.63 131.34-31.55 128.74-31.55L128.74-31.55Q126.19-31.55 123.92-30.53 121.64-29.5 119.92-27.68 118.19-25.85 117.19-23.43 116.19-21 116.19-18.15L116.19-18.15Q116.19-15.25 117.09-12.8 117.99-10.35 119.67-8.55 121.34-6.75 123.69-5.75 126.04-4.75 128.99-4.75L128.99-4.75Q131.79-4.75 133.92-5.6 136.04-6.45 137.39-7.55L137.39-7.55Z" opacity="1" transform="matrix(1,0,0,1,0,0)" fill="#2a3139" class="wordmark-text-0" data-fill-palette-color="primary" id="text-0"></path></svg></g></svg></g></svg></g></svg></g><g><svg viewBox="0 0 163.03972240186422 152.0072678717201" height="152.0072678717201" width="163.03972240186422"><g><svg xmlns="http://www.w3.org/2000/svg" xmlns:xlink="http://www.w3.org/1999/xlink" version="1.1" x="0" y="0" viewBox="2.87152099609375 2.7669625282287598 94.48348236083984 88.09004211425781" enable-background="new 0 0 100 100" xml:space="preserve" height="152.0072678717201" width="163.03972240186422" class="icon-icon-0" data-fill-palette-color="accent" id="icon-0"><path d="M29.421 19.786c0 2.725 2.212 4.936 4.937 4.936 2.463 0 3.646-1.558 4.454-0.597 0.416 0.495 0.479 1.12 0.479 2.987v9.676l8.237 0.003c1.208 0 1.38-0.116 1.479-0.35 0.207-0.478-0.218-1.26-0.218-3.059 0-3.791 4-6.814 7.511-6.814 3.505 0 7.501 2.874 7.501 6.814 0 1.799-0.424 2.578-0.216 3.059 0.101 0.232 0.272 0.35 1.479 0.35h8.233V6.801c0 0 0.126-2.123-0.885-3.135-1.009-1.007-3.401-0.885-3.401-0.885H39.292v9.68c0 1.869-0.064 2.49-0.476 2.987-0.808 0.963-1.994-0.596-4.457-0.596C31.633 14.852 29.421 17.061 29.421 19.786z" fill="#9e2435" data-fill-palette-color="accent"></path><path d="M2.886 36.794h9.681c1.869 0 2.49 0.061 2.987 0.477 0.964 0.808-0.596 1.993-0.596 4.456 0 2.727 2.211 4.938 4.937 4.938 2.722 0 4.933-2.211 4.933-4.937 0-2.462-1.56-3.646-0.595-4.457 0.494-0.413 1.118-0.477 2.986-0.477h9.679v-8.238c0-1.207-0.116-1.379-0.352-1.478-0.477-0.206-1.258 0.215-3.056 0.215-3.792 0-6.817-3.998-6.817-7.507 0-3.507 2.873-7.505 6.817-7.505 1.795 0 2.579 0.425 3.056 0.218 0.233-0.1 0.352-0.27 0.352-1.479V2.781H7.686c0 0-2.827-0.197-3.911 0.885-1.084 1.087-0.89 3.516-0.89 3.516V36.794z" fill="#9e2435" data-fill-palette-color="accent"></path><path d="M46.768 56.415c0-2.728-2.208-4.937-4.934-4.937-2.464 0-3.649 1.558-4.457 0.596-0.413-0.497-0.477-1.118-0.477-2.986v-9.679l-8.236-0.004c-1.208 0-1.38 0.12-1.482 0.354-0.203 0.478 0.218 1.259 0.218 3.057 0 3.79-4.001 6.814-7.508 6.814s-7.505-2.871-7.505-6.814c0-1.798 0.427-2.579 0.218-3.057-0.099-0.23-0.27-0.35-1.479-0.35H2.886v29.332c0 0-0.055 2.47 1.018 3.537 1.068 1.07 3.506 1.139 3.506 1.139H36.9v-9.678c0-1.867 0.064-2.492 0.477-2.986 0.811-0.965 1.993 0.599 4.457 0.599C44.559 61.352 46.768 59.139 46.768 56.415z" fill="#9e2435" data-fill-palette-color="accent"></path><path d="M76.521 88.893l20.834-20.832-6.843-6.842c-1.322-1.322-1.719-1.805-1.777-2.45-0.109-1.252 1.832-0.984 3.574-2.728 1.927-1.928 1.931-5.054 0-6.979-1.929-1.929-5.049-1.929-6.978-0.003-1.741 1.743-1.479 3.686-2.728 3.574-0.646-0.055-1.131-0.453-2.452-1.776l-6.845-6.843-5.826 5.827c-0.853 0.854-0.893 1.054-0.796 1.292 0.19 0.483 1.042 0.735 2.314 2.007 2.683 2.681 1.99 7.648-0.49 10.13-2.483 2.48-7.337 3.274-10.126 0.485-1.27-1.27-1.522-2.121-2.008-2.316-0.236-0.089-0.439-0.052-1.297 0.803l-5.822 5.825 20.908 20.907c0 0 1.642 1.885 3.141 1.883C74.801 90.858 76.521 88.893 76.521 88.893z" fill="#9e2435" data-fill-palette-color="accent"></path></svg></g></svg></g></svg></g><defs></defs></svg><rect width="395.52" height="102.85585945780815" fill="none" stroke="none" visibility="hidden"></rect></g></svg></g></svg>