<svg xmlns="http://www.w3.org/2000/svg" xmlns:xlink="http://www.w3.org/1999/xlink" version="1.1" width="200pt" height="38.995599pt" viewBox="0 0 200 38.995599">
<defs>
<clipPath id="clip_0">
<path transform="matrix(1,0,0,-1,0,119.497)" d="M0 200H200V0H0Z"/>
</clipPath>
</defs>
<g id="layer_1" data-name="Layer 1">
<g clip-path="url(#clip_0)">
<path transform="matrix(1,0,0,-1,6.8501,12.296799)" d="M0 0C1.425 .3 2.925 .15 4.35-.375L12.075 7.425C13.125 8.475 14.925 8.475 16.05 7.35 17.1 6.3 17.1 4.425 16.05 3.375L14.025 1.35 11.025 4.35 8.7 2.025 17.1-6.375 19.5-3.975 16.5-.975 18.45 .975C20.85 3.375 20.85 7.275 18.45 9.75 16.05 12.15 12.15 12.15 9.675 9.75 9.675 9.675-.075 0 0 0M21.3 6.825C21.6 5.4 21.45 3.9 20.925 2.475L28.725-5.325C29.775-6.375 29.775-8.175 28.65-9.3 27.6-10.351 25.725-10.351 24.675-9.3L22.65-7.275 25.65-4.275 23.25-1.875 14.925-10.275 17.325-12.675 20.325-9.675 22.275-11.625C24.675-14.025 28.575-14.025 31.05-11.625 33.45-9.226 33.45-5.325 31.05-2.85 30.975-2.85 21.3 6.9 21.3 6.825M28.125-14.476C26.7-14.775 25.2-14.625 23.775-14.101L16.05-21.825C15-22.875 13.2-22.875 12.075-21.75 11.025-20.7 11.025-18.825 12.075-17.775L14.1-15.75 17.1-18.75 19.5-16.351 11.025-8.025 8.7-10.425 11.7-13.425 9.75-15.375C7.35-17.775 7.35-21.675 9.75-24.15 12.15-26.55 16.05-26.55 18.525-24.15 18.45-24.15 28.2-14.4 28.125-14.476M6.825-21.3C6.525-19.875 6.675-18.375 7.2-16.95L-.525-9.226C-1.575-8.175-1.575-6.375-.45-5.25 .6-4.2 2.475-4.2 3.525-5.25L5.55-7.275 2.55-10.275 4.95-12.675 13.2-4.2 10.8-1.8 7.8-4.8 5.85-2.85C3.45-.45-.45-.45-2.925-2.85-5.325-5.25-5.325-9.15-2.925-11.625-2.85-11.625 6.825-21.3 6.825-21.3" fill="#ab0334"/>
<path transform="matrix(1,0,0,-1,49.9751,26.546799)" d="M0 0 .75-.525C.825-.525 .825-.601 .825-.75 .825-.825 .75-.825 .675-.9L.375-.825C-.3-.9-1.125-1.05-2.025-1.125V-2.175H.9L1.5-1.5 2.325-2.101C2.4-2.175 2.475-2.25 2.475-2.325 2.475-2.4 2.4-2.476 2.25-2.476H-1.65C-1.275-2.775-.975-3-.6-3.226-.15-3.45 .3-3.675 .75-3.825 1.275-3.976 1.875-4.2 2.55-4.275L2.625-4.575H2.25C2.175-4.575 2.025-4.8 1.8-5.175 1.35-5.025 .825-4.8 .3-4.425-.225-4.125-.675-3.75-1.125-3.3-1.35-3.075-1.65-2.775-1.95-2.4V-4.575C-1.95-4.726-2.025-4.8-2.1-4.875-2.25-4.95-2.325-4.95-2.475-4.95-2.7-4.95-2.775-4.875-2.775-4.65L-2.7-3.601V-2.775C-2.925-3.15-3.225-3.45-3.45-3.601-3.9-3.976-4.5-4.351-5.25-4.726-5.775-5.025-6.375-5.25-7.05-5.476L-7.2-5.25C-6.6-4.95-6.075-4.65-5.625-4.351-5.1-4.05-4.725-3.675-4.35-3.3-3.975-3-3.75-2.625-3.525-2.25H-5.85C-6.225-2.25-6.6-2.25-6.975-2.325L-7.2-1.8C-6.75-1.875-6.3-1.875-5.85-1.875H-2.85V-.9C-3.6-.976-4.725-1.05-6.15-1.05L-6.3-.825C-4.875-.675-3.825-.525-3.075-.45-1.8-.601-.825-.375 0 0M-4.425-6.976H-.375V-5.625H-4.425ZM-4.425-8.55H-.375V-7.276H-4.425ZM.075-4.875 .75-5.4C.9-5.476 .9-5.55 .9-5.625 .9-5.7 .825-5.775 .75-5.775L.45-5.925V-8.175L.525-9.075C.525-9.15 .45-9.226 .375-9.3 .3-9.375 .15-9.375 0-9.375-.3-9.375-.45-9.3-.45-9.15V-8.775H-4.425V-9.075C-4.425-9.226-4.5-9.3-4.575-9.3-4.65-9.375-4.8-9.375-4.95-9.375-5.1-9.375-5.175-9.3-5.25-9.075L-5.175-8.025V-5.55C-5.175-5.175-5.175-4.95-5.25-4.8L-4.35-5.25H-.375Z" fill="#716f73"/>
<path transform="matrix(1,0,0,-1,55,26.846604)" d="M0 0C.525-.226 .9-.45 1.2-.601 1.425-.75 1.575-.9 1.575-1.125 1.575-1.426 1.425-1.575 1.125-1.575 .975-1.575 .825-1.5 .75-1.275 .525-.9 .3-.601-.15-.226ZM-.6-2.476C-.075-2.7 .3-2.851 .525-3.075 .75-3.226 .9-3.375 .9-3.525 .9-3.825 .75-3.976 .45-3.976 .3-3.976 .15-3.9 .075-3.676-.075-3.301-.375-3-.825-2.625ZM4.125-3.375H5.625V-1.726H4.125ZM3.9-6.525H5.8500006V-5.25H3.9ZM3.3 .149 4.275 0C4.425 0 4.575-.075 4.575-.15 4.575-.301 4.425-.375 4.2-.45V-1.351H5.7V-.525C5.7-.45 5.7-.226 5.625 .074L6.6-.075C6.75-.075 6.9-.15 6.9-.301 6.9-.45 6.75-.525 6.525-.601V-1.426H7.05L7.65-.75 8.475-1.351C8.55-1.426 8.625-1.5 8.625-1.575 8.625-1.65 8.55-1.726 8.4-1.726H6.525V-3.375H7.575L8.175-2.7 9-3.301C9.075-3.375 9.15-3.45 9.15-3.525 9.15-3.601 9.075-3.676 8.925-3.676H6.225C6.45-3.9 6.675-4.051 6.975-4.2 7.275-4.351 7.575-4.575 7.95-4.65 8.325-4.801 8.7-4.875 9.225-5.025L9.15-5.25H8.775C8.7-5.25 8.55-5.476 8.325-5.851 8.025-5.7 7.725-5.551 7.35-5.25 7.05-5.025 6.75-4.726 6.45-4.351 6.3-4.2 6.075-3.9 5.925-3.601H4.5C4.275-4.051 4.05-4.426 3.75-4.726L3.675-4.801 3.9-4.875H5.925L6.375-4.5 6.975-5.025C7.05-5.101 7.125-5.176 7.125-5.25 7.125-5.325 7.05-5.325 6.975-5.4L6.675-5.476V-6.15L6.75-7.051C6.75-7.125 6.675-7.2 6.6-7.275 6.525-7.351 6.45-7.351 6.3-7.351 6-7.351 5.925-7.275 5.925-7.125V-6.825H3.975V-7.65C3.975-7.875 4.125-8.025 4.425-8.101 4.725-8.176 5.25-8.176 6.075-8.176 6.825-8.176 7.275-8.176 7.5-8.101 7.65-8.101 7.8-8.025 7.875-7.875L8.25-6.676H8.475L8.4-7.65C8.4-7.801 8.475-7.875 8.55-7.95 8.7-8.101 8.775-8.176 8.775-8.325 8.775-8.476 8.7-8.551 8.55-8.625 8.4-8.7 8.175-8.775 7.875-8.851 7.5-8.926 6.9-8.926 6.075-8.926 5.175-8.926 4.5-8.926 4.125-8.775 3.825-8.775 3.6-8.625 3.375-8.476 3.225-8.325 3.15-8.101 3.15-7.801V-5.325C3.075-5.4 2.925-5.551 2.775-5.625 2.325-6 1.8-6.301 1.2-6.525L1.05-6.301C1.425-6.075 1.65-5.851 1.95-5.625 2.25-5.4 2.475-5.101 2.7-4.801 2.925-4.426 3.225-4.051 3.45-3.525H1.65L.825-6.226C.75-6.375 .75-6.525 .75-6.676 .75-6.9 .825-7.125 .9-7.426 1.05-7.801 1.05-8.025 1.05-8.176 1.05-8.4 .975-8.625 .9-8.775 .825-8.926 .675-9 .525-9 .375-9 .225-8.926 .15-8.851 .075-8.7 0-8.551 0-8.25V-7.875C0-7.726 .075-7.575 .075-7.426 .075-7.2 0-6.976-.075-6.825-.15-6.676-.375-6.601-.675-6.525V-6.226C-.525-6.301-.375-6.375-.3-6.375-.15-6.375-.075-6.226 .075-6L1.95-1.726 2.175-1.875 1.8-3.15H3.45V-1.5C3.075-1.5 2.7-1.5 2.4-1.575L2.175-1.051C2.625-1.125 3-1.125 3.45-1.2V-.525C3.375-.375 3.375-.226 3.3 .149" fill="#716f73"/>
<path transform="matrix(1,0,0,-1,68.7251,27.072205)" d="M0 0 .75-.524C.825-.6 .825-.675 .825-.75 .825-.825 .75-.899 .6-.899H-.675V-3.3H-.6L-.075-2.7 .6-3.225C.675-3.3 .675-3.375 .675-3.375 .675-3.45 .6-3.524 .525-3.524H-.75V-5.774C-.225-5.7 .225-5.55 .675-5.399L.75-5.625C-.075-6.149-.975-6.6-2.025-7.125L-2.1-7.5C-2.1-7.575-2.175-7.649-2.25-7.649-2.325-7.649-2.4-7.575-2.4-7.5L-2.775-6.45C-2.325-6.375-1.875-6.225-1.425-6.075V-3.6C-1.8-3.6-2.1-3.6-2.475-3.675L-2.7-3.149C-2.25-3.225-1.875-3.225-1.425-3.3V-.899C-1.8-.899-2.175-.899-2.55-.975L-2.775-.45C-2.325-.524-1.875-.6-1.425-.6H-.6ZM3.975-2.25H5.475V-.45000006H3.975ZM1.725-2.25H3.15V-.45000006H1.725ZM3.975-4.274H5.475V-2.5490003H3.975ZM1.725-4.274H3.15V-2.5490003H1.725ZM.9 .15 1.65-.225H5.4L5.85 .15 6.45-.375C6.525-.45 6.6-.524 6.6-.524 6.6-.6 6.525-.6 6.45-.675L6.15-.75V-3.899L6.225-4.725C6.225-4.8 6.15-4.875 6.075-4.95 6-5.024 5.925-5.024 5.775-5.024 5.475-5.024 5.4-4.95 5.4-4.8V-4.5H3.9V-6.075H4.95L5.55-5.399 6.375-6C6.45-6.075 6.525-6.149 6.525-6.225 6.525-6.3 6.45-6.375 6.3-6.375H3.9V-8.25H5.4L6.075-7.575 6.9-8.175C6.975-8.25 7.05-8.325 7.05-8.399 7.05-8.475 6.975-8.55 6.825-8.55H.975C.6-8.55 .225-8.55-.15-8.625L-.375-8.1C.075-8.175 .525-8.25 .975-8.25H3V-6.375H1.95C1.575-6.375 1.2-6.375 .825-6.45V-6C1.275-6.075 1.725-6.149 2.175-6.149H3.225V-4.575H1.8V-4.725C1.8-4.875 1.725-4.95 1.65-5.024 1.575-5.1 1.425-5.1 1.275-5.1 1.125-5.1 1.05-5.024 .975-4.8L1.05-3.825V-.524C.975-.149 .975 .075 .9 .15" fill="#716f73"/>
<path transform="matrix(1,0,0,-1,85.6001,27.372002)" d="M0 0 .9-.675C.975-.75 1.05-.825 1.05-.9 1.05-.975 .975-1.05 .825-1.05H-2.7V-7.5H.15L.75-6.75 1.65-7.425C1.725-7.5 1.8-7.575 1.8-7.65 1.8-7.725 1.725-7.8 1.575-7.8H-6.375C-6.825-7.8-7.2-7.875-7.65-7.95L-7.875-7.35C-7.35-7.425-6.825-7.5-6.375-7.5H-3.6V-1.05H-5.625C-6.075-1.05-6.45-1.125-6.9-1.2L-7.125-.6C-6.6-.675-6.075-.75-5.625-.75H-.675Z" fill="#716f73"/>
<path transform="matrix(1,0,0,-1,93.1001,26.622002)" d="M0 0 1.125-.15C1.275-.15 1.35-.225 1.35-.375 1.35-.525 1.2-.6 .9-.675 .9-1.5 .9-2.25 .75-2.85H3.525L4.2-2.1 5.1-2.775C5.175-2.85 5.25-2.925 5.25-3 5.25-3.075 5.175-3.15 5.025-3.15H.9C1.275-4.05 1.575-4.725 2.025-5.325 2.475-6 3-6.6 3.6-7.125 4.2-7.65 4.8-7.95 5.475-8.25L5.325-8.55C5.175-8.55 5.025-8.55 4.875-8.625 4.725-8.625 4.575-8.85 4.35-9.15 3.75-8.775 3.225-8.325 2.775-7.8 2.25-7.2 1.8-6.525 1.425-5.7 1.125-5.1 .825-4.275 .6-3.3 .6-3.375 .6-3.45 .525-3.6 .375-4.275 .225-4.95-.075-5.475-.3-6-.6-6.525-.975-6.9-1.35-7.35-1.875-7.8-2.4-8.175-2.85-8.475-3.45-8.85-4.125-9.225L-4.35-9C-3.6-8.475-3-8.1-2.625-7.725-2.1-7.2-1.575-6.675-1.2-6.075-.825-5.4-.525-4.725-.3-3.9-.225-3.6-.15-3.3-.15-3H-2.775C-3.15-3-3.525-3-3.9-3.075L-4.125-2.55C-3.675-2.625-3.225-2.7-2.775-2.7H-.075C0-2.25 0-1.725 0-.975 .075-.9 .075-.525 0 0" fill="#716f73"/>
<path transform="matrix(1,0,0,-1,105.7002,26.697205)" d="M0 0 .75-.3C.825-.3 .899-.375 .899-.45 .899-.524 .75-.6 .524-.675 .45-.75 .375-.899 .225-.975 .524-1.125 .675-1.35 .675-1.5 .675-1.575 .675-1.649 .6-1.725 .524-1.8 .45-1.8 .375-1.8 .3-1.8 .149-1.725 0-1.575L-.226-1.35C-.3-1.425-.45-1.5-.601-1.575-.825-1.725-1.125-1.8-1.575-1.95L-1.65-1.725C-1.5-1.649-1.351-1.575-1.275-1.5-1.125-1.425-.976-1.274-.825-1.125L-.675-.975C-.9-.75-1.2-.524-1.575-.3L-1.425-.149C-.976-.3-.675-.45-.45-.6-.226-.524-.15-.3 0 0M0-2.024 .75-2.325C.825-2.325 .899-2.399 .899-2.475 .899-2.55 .75-2.625 .524-2.7L.3-2.925C.375-2.925 .375-3 .45-3 .75-3.149 .899-3.375 .975-3.524 .975-3.675 .975-3.75 .899-3.75 .825-3.825 .75-3.825 .6-3.899 .45-3.899 .375-3.825 .225-3.6 .075-3.45 0-3.375-.15-3.3-.3-3.375-.45-3.45-.675-3.6-.9-3.675-1.275-3.825-1.726-3.899L-1.8-3.675C-1.575-3.6-1.425-3.524-1.351-3.45-1.125-3.375-.976-3.225-.825-3.075-.75-3-.675-2.925-.601-2.925-.825-2.774-1.125-2.55-1.425-2.399L-1.275-2.25C-.9-2.399-.601-2.475-.375-2.55-.3-2.475-.15-2.325 0-2.024M-2.476 .15-1.8-.45C-1.726-.524-1.726-.6-1.726-.6-1.726-.675-1.8-.75-1.875-.75L-2.25-.6C-2.775-.675-3.15-.75-3.601-.825L-3.525-1.575H-2.925L-2.476-1.125-1.875-1.575C-1.8-1.649-1.8-1.649-1.8-1.725-1.8-1.8-1.875-1.8-1.95-1.8H-3.45L-3.375-2.7H-2.775L-2.325-2.25-1.726-2.7C-1.65-2.774-1.65-2.774-1.65-2.85-1.65-2.925-1.726-3-1.8-3H-3.375L-3.3-3.899H2.325L2.399-3H2.325C1.95-3 1.575-3 1.2-3.075L.975-2.55C1.425-2.625 1.875-2.7 2.325-2.7H2.475L2.55-1.8H2.399C2.024-1.8 1.649-1.8 1.274-1.875L1.05-1.35C1.5-1.425 1.95-1.5 2.399-1.5H2.55L2.625-.6H2.399C2.024-.6 1.649-.6 1.274-.675L1.05-.149C1.5-.225 1.95-.3 2.399-.3H2.55V-.225L3 .226 3.524-.3C3.6-.375 3.675-.45 3.675-.524 3.675-.6 3.675-.675 3.6-.675L3.375-.825 3.075-3.825H3.225L3.6-3.675 4.274-4.2C4.35-4.274 4.425-4.274 4.425-4.425 4.425-4.5 4.35-4.5 4.274-4.575L4.05-4.649C3.825-4.95 3.45-5.175 3-5.55L2.774-5.399C3-5.024 3.149-4.649 3.225-4.35H-4.275C-4.275-4.575-4.351-4.8-4.351-4.95-4.425-5.175-4.5-5.325-4.65-5.475-4.725-5.55-4.875-5.625-4.95-5.625-5.25-5.625-5.4-5.475-5.4-5.175-5.4-5.1-5.325-5.024-5.25-4.875-5.1-4.725-5.025-4.575-4.875-4.425-4.725-4.2-4.65-3.899-4.575-3.524L-4.351-3.6C-4.351-3.75-4.351-3.899-4.275-4.05H-3.976L-4.125-1.05C-4.125-.825-4.2-.524-4.275-.149L-3.525-.6C-3.226-.375-2.851-.149-2.476 .15M1.575-4.8 2.25-5.475C2.325-5.55 2.399-5.625 2.399-5.7 2.399-5.774 2.325-5.85 2.25-5.85H1.875C1.274-6.149 .75-6.3 .149-6.524V-6.6C.149-6.675 .075-6.675-.075-6.825V-6.975H2.475L3.075-6.3 3.899-6.899C3.975-6.975 4.05-7.05 4.05-7.125 4.05-7.2 3.975-7.274 3.825-7.274H-.075V-8.325C-.075-8.7-.226-8.925-.601-9.149-.9-9.3-1.125-9.375-1.425-9.375-1.425-9.149-1.425-8.925-1.5-8.774-1.575-8.625-1.875-8.475-2.476-8.325V-8.024L-1.125-8.325C-.976-8.325-.9-8.25-.9-8.1V-7.2H-3.75C-4.125-7.2-4.5-7.2-4.875-7.274L-5.1-6.75C-4.65-6.825-4.2-6.899-3.75-6.899H-.9C-.9-6.675-.9-6.375-.976-6.075L-.3-6.3C.075-6.075 .45-5.774 .825-5.475H-2.25C-2.625-5.475-3-5.475-3.375-5.55L-3.601-5.024C-3.15-5.1-2.7-5.175-2.25-5.175H1.05Z" fill="#716f73"/>
<path transform="matrix(1,0,0,-1,50.9502,4.9472048)" d="M0 0H-.375C-.45 .675-.375 1.125-1.425 1.125H-3.45V-5.7C-3.45-6.525-2.925-6.6-2.25-6.6V-6.9H-4.05-6V-6.6C-5.325-6.6-4.8-6.6-4.8-5.7V1.125H-6.525C-7.725 1.125-7.8 .825-8.025 0H-8.4L-8.25 1.95H-7.95C-7.8 1.65-7.425 1.575-7.125 1.575H-1.125C-.675 1.575-.3 1.65-.3 1.95H0Z" fill="#716f73"/>
<path transform="matrix(1,0,0,-1,58.6001,7.9472048)" d="M0 0V2.25C0 3-.45 3-.975 3V3.225H.675 2.1V2.925C1.5 2.925 1.125 2.925 1.125 2.175V-2.925C1.125-3.675 1.575-3.675 2.1-3.675V-3.975H.6-.975V-3.675C-.375-3.675 0-3.675 0-2.925V-.45H-4.425V-2.925C-4.425-3.675-3.975-3.675-3.45-3.675V-3.975H-4.95-6.525V-3.675C-5.925-3.675-5.55-3.675-5.55-2.925V2.175C-5.55 2.925-6 2.925-6.525 2.925V3.225H-5.025-3.45V2.925C-4.05 2.925-4.425 2.925-4.425 2.175V-.075H0Z" fill="#716f73"/>
<path transform="matrix(1,0,0,-1,63.625,7.9472048)" d="M0 0H1.425C2.325 0 2.325 .675 2.325 .9H2.55C2.55 .675 2.475 .15 2.475-.225 2.475-.525 2.55-1.05 2.55-1.35H2.325C2.325-.375 1.95-.375 1.125-.375H-.075V-2.175C-.075-3.3 0-3.6 1.05-3.6H1.725C2.775-3.525 3.3-3.45 3.75-2.325L4.05-2.4C3.9-2.925 3.675-3.45 3.6-3.975H.3-2.175V-3.675C-1.2-3.675-1.125-3.525-1.125-2.55V1.95C-1.125 2.775-1.275 2.85-2.175 2.85V3.225H.075 3.225V1.725L3 1.65C2.85 2.625 2.325 2.925 1.275 2.925H0Z" fill="#716f73"/>
<path transform="matrix(1,0,0,-1,78.7749,7.1972048)" d="M0 0V2.7C0 3.525-.525 3.6-1.2 3.6V3.9H.75 2.475V3.6C1.8 3.6 1.275 3.6 1.275 2.7V-3.45C1.275-4.275 1.8-4.35 2.475-4.35V-4.65H.675-1.275V-4.35C-.6-4.35-.075-4.35-.075-3.45V-.45H-5.4V-3.45C-5.4-4.275-4.875-4.35-4.2-4.35V-4.65H-6-7.95V-4.35C-7.275-4.35-6.75-4.35-6.75-3.45V2.7C-6.75 3.525-7.275 3.6-7.95 3.6V3.9H-6.15-4.275V3.6C-4.95 3.6-5.475 3.6-5.475 2.7V0Z" fill="#716f73"/>
<path transform="matrix(1,0,0,-1,85.9751,11.697205)" d="M0 0C1.575 0 2.625 1.275 2.625 3.15 2.625 4.725 1.65 6.825-.225 6.825-1.8 6.825-2.85 5.55-2.85 3.675-2.85 2.1-1.875 0 0 0M-.075 7.125C2.1 7.125 3.825 5.4 3.825 3.45 3.825 1.575 2.25-.3-.15-.3-2.325-.3-4.05 1.425-4.05 3.375-4.05 5.25-2.55 7.125-.075 7.125" fill="#716f73"/>
<path transform="matrix(1,0,0,-1,97.75,11.997002)" d="M0 0H-.225L-6 5.85V2.025C-6 .6-5.85 .3-4.725 .3V0H-6.225-7.725V.375C-7.05 .375-6.525 .375-6.525 1.65V5.775C-6.525 6.675-6.9 6.975-7.875 6.975V7.275H-6.825-5.925C-5.475 6.675-4.425 5.7-3.225 4.425-2.325 3.45-1.275 2.475-.525 1.725V5.775C-.525 6.75-.75 6.975-1.875 6.975V7.275H-.375 .9V6.975C.225 6.975-.15 6.9-.15 5.925V0Z" fill="#716f73"/>
<path transform="matrix(1,0,0,-1,106.2246,6.5970995)" d="M0 0H-.225C-.524 1.2-1.574 1.65-2.85 1.65-4.8 1.65-5.925 .075-5.925-1.575-5.925-3.375-4.725-5.1-2.774-5.1-1.875-5.1-1.425-4.8-1.274-4.725V-3.225C-1.274-2.475-1.725-2.475-2.25-2.475V-2.175H-.75 .601V-2.475C.226-2.475-.149-2.475-.149-3.225V-4.575L0-4.725V-4.875C-.899-5.175-1.875-5.475-2.85-5.475-5.925-5.475-7.05-3.225-7.05-1.8-7.05 .375-5.25 1.95-2.925 1.95-1.949 1.95-.975 1.725-.074 1.425Z" fill="#716f73"/>
<path transform="matrix(1,0,0,-1,115.4502,4.5722048)" d="M0 0C.149 .15 .524 .45 .524 .675 .524 .975 .149 .975-.226 .975V1.275H1.5 2.774V.975C2.024 .975 1.575 .9 .375-.3L-1.875-2.475C-.525-3.825 .75-5.25 2.1-6.525 2.55-6.9 2.925-6.9 3.225-6.9V-7.2H1.95 .975C-.3-5.7-1.726-4.35-3.15-2.925ZM-5.625-6.975C-4.95-6.975-4.425-6.975-4.425-6.075V.075C-4.425 .9-4.95 .975-5.625 .975V1.275H-3.825-2.175V.975C-2.7 .975-3.15 .975-3.15 .075V-6.075C-3.15-6.9-2.625-6.975-2.101-6.975V-7.275H-3.75-5.7V-6.975Z" fill="#716f73"/>
<path transform="matrix(1,0,0,-1,122.6504,11.697205)" d="M0 0C1.574 0 2.625 1.275 2.625 3.15 2.625 4.725 1.649 6.825-.226 6.825-1.801 6.825-2.851 5.55-2.851 3.675-2.926 2.1-1.95 0 0 0M-.15 7.125C2.024 7.125 3.75 5.4 3.75 3.45 3.75 1.575 2.175-.3-.226-.3-2.4-.3-4.125 1.425-4.125 3.375-4.125 5.25-2.551 7.125-.15 7.125" fill="#716f73"/>
<path transform="matrix(1,0,0,-1,134.4248,11.997002)" d="M0 0H-.225L-6 5.85V2.025C-6 .6-5.85 .3-4.725 .3V0H-6.225-7.725V.375C-7.05 .375-6.524 .375-6.524 1.65V5.775C-6.524 6.675-6.899 6.975-7.875 6.975V7.275H-6.825-5.925C-5.475 6.675-4.425 5.7-3.225 4.425-2.325 3.45-1.274 2.475-.524 1.725V5.775C-.524 6.75-.75 6.975-1.875 6.975V7.275H-.375 .9V6.975C.226 6.975-.149 6.9-.149 5.925V0Z" fill="#716f73"/>
<path transform="matrix(1,0,0,-1,142.9004,6.5970995)" d="M0 0H-.226C-.525 1.2-1.575 1.65-2.851 1.65-4.801 1.65-5.926 .075-5.926-1.575-5.926-3.375-4.726-5.1-2.775-5.1-1.875-5.1-1.426-4.8-1.275-4.725V-3.225C-1.275-2.475-1.726-2.475-2.25-2.475V-2.175H-.75 .6V-2.475C.225-2.475-.15-2.475-.15-3.225V-4.575L0-4.725V-4.875C-.9-5.175-1.875-5.475-2.851-5.475-5.926-5.475-7.051-3.225-7.051-1.8-7.051 .375-5.25 1.95-2.926 1.95-1.95 1.95-.976 1.725-.075 1.425Z" fill="#716f73"/>
<path transform="matrix(1,0,0,-1,42.8501,14.921799)" d="M0 0H1.8 3.3C4.65 0 6.6-.525 6.6-2.4 6.6-3.825 5.175-4.875 3.75-4.875H3.075V-4.5H3.6C4.725-4.5 5.25-3.45 5.25-2.55 5.25-.825 3.975-.375 3.075-.375 2.85-.375 2.625-.375 2.475-.45V-7.351C2.475-8.175 3-8.25 3.675-8.25V-8.55H1.875-.075V-8.25C.6-8.25 1.125-8.25 1.125-7.351V-1.5C1.125-.525 .975-.3-.075-.3V0Z" fill="#716f73"/>
<path transform="matrix(1,0,0,-1,54.25,23.322205)" d="M0 0C1.575 0 2.625 1.275 2.625 3.15 2.625 4.725 1.65 6.825-.225 6.825-1.8 6.825-2.85 5.55-2.85 3.675-2.85 2.101-1.95 0 0 0M-.15 7.125C2.025 7.125 3.75 5.4 3.75 3.45 3.75 1.575 2.175-.3-.225-.3-2.4-.3-4.125 1.425-4.125 3.375-4.125 5.25-2.55 7.125-.15 7.125" fill="#716f73"/>
<path transform="matrix(1,0,0,-1,64.4502,23.471604)" d="M0 0H-2.775-5.7V.3C-5.175 .3-4.725 .375-4.725 .975V6.149C-4.725 6.899-5.175 6.899-5.7 6.899V7.2H-4.2-2.625V6.899C-3.225 6.899-3.6 6.899-3.6 6.149V1.425C-3.6 .675-3.45 .375-1.875 .375-.6 .375-.15 .675 .15 1.649L.375 1.574Z" fill="#716f73"/>
<path transform="matrix(1,0,0,-1,68.7251,22.497002)" d="M0 0C0-.75 .45-.75 .975-.75V-1.05H-.6-2.1V-.75C-1.5-.75-1.125-.75-1.125 0V2.475L-3.45 5.4C-3.75 5.85-3.825 5.775-4.5 5.85V6.15H-3-1.65V5.85C-1.8 5.85-2.25 5.85-2.25 5.625-2.25 5.475-2.1 5.25-1.875 5.025L-.3 3 1.125 4.8C1.275 4.95 1.575 5.325 1.575 5.55 1.575 5.85 1.35 5.85 .825 5.85V6.15H2.1 3V5.85C2.55 5.85 2.325 5.55 2.1 5.25L0 2.625Z" fill="#716f73"/>
<path transform="matrix(1,0,0,-1,79.4502,17.697205)" d="M0 0H-.3C-.3 .525-.3 .9-1.2 .9H-2.85V-4.8C-2.85-5.55-2.4-5.55-1.875-5.55V-5.85H-3.375-4.95V-5.55C-4.35-5.55-3.975-5.55-3.975-4.8V.9H-5.4C-6.375 .9-6.45 .675-6.6 0H-6.9L-6.75 1.65H-6.525C-6.375 1.35-6.075 1.35-5.85 1.35H-.825C-.45 1.35-.15 1.425-.075 1.65H.15Z" fill="#716f73"/>
<path transform="matrix(1,0,0,-1,82.5249,19.572205)" d="M0 0H1.425C2.325 0 2.325 .675 2.325 .9H2.55C2.55 .675 2.475 .15 2.475-.225 2.475-.525 2.55-1.05 2.55-1.35H2.325C2.325-.375 1.95-.375 1.125-.375H-.075V-2.1C-.075-3.225 0-3.524 1.05-3.524H1.725C2.775-3.45 3.3-3.375 3.75-2.25L4.05-2.325C3.9-2.85 3.675-3.375 3.6-3.899H.3-2.175V-3.6C-1.2-3.6-1.125-3.45-1.125-2.475V2.025C-1.125 2.85-1.275 2.925-2.175 2.925V3.225H.075 3.225V1.725L3 1.65C2.85 2.625 2.325 2.925 1.275 2.925H0Z" fill="#716f73"/>
<path transform="matrix(1,0,0,-1,94.2251,18.2221)" d="M0 0H-.3C-.525 1.2-1.425 1.65-2.625 1.65-3.9 1.65-5.7 .9-5.7-1.575-5.7-3.6-4.125-5.1-2.4-5.1-1.275-5.1-.375-4.425-.15-3.3L.075-3.375-.15-4.875C-.6-5.175-1.875-5.4-2.55-5.4-5.1-5.4-6.75-3.825-6.75-1.575-6.75 .525-4.725 2.025-2.55 2.025-1.65 2.025-.825 1.725 .075 1.5Z" fill="#716f73"/>
<path transform="matrix(1,0,0,-1,101.6504,19.572205)" d="M0 0V2.25C0 3-.45 3-.976 3V3.3H.675 2.1V3C1.5 3 1.125 3 1.125 2.25V-2.85C1.125-3.6 1.574-3.6 2.1-3.6V-3.899H.6-.976V-3.6C-.375-3.6 0-3.6 0-2.85V-.375H-4.425V-2.85C-4.425-3.6-3.976-3.6-3.45-3.6V-3.899H-4.95-6.525V-3.6C-5.925-3.6-5.55-3.6-5.55-2.85V2.25C-5.55 3-6 3-6.525 3V3.3H-5.025-3.45V3C-4.05 3-4.425 3-4.425 2.25V0Z" fill="#716f73"/>
<path transform="matrix(1,0,0,-1,112.375,23.546799)" d="M0 0H-.225L-6 5.85V2.024C-6 .6-5.85 .3-4.725 .3V0H-6.225-7.725V.3C-7.05 .3-6.525 .3-6.525 1.575V5.7C-6.525 6.6-6.9 6.9-7.875 6.9V7.2H-6.825-5.925C-5.475 6.6-4.425 5.625-3.225 4.35-2.325 3.375-1.275 2.399-.525 1.649V5.7C-.525 6.675-.75 6.9-1.875 6.9V7.2H-.375 .9V6.9C.225 6.9-.15 6.825-.15 5.85V0Z" fill="#716f73"/>
<path transform="matrix(1,0,0,-1,115.2246,17.322205)" d="M0 0C0 .75-.449 .75-.975 .75V1.05H.525 2.101V.75C1.5 .75 1.125 .75 1.125 0V-5.1C1.125-5.85 1.575-5.85 2.101-5.85V-6.149H.601-.975V-5.85C-.375-5.85 0-5.85 0-5.1Z" fill="#716f73"/>
<path transform="matrix(1,0,0,-1,124.8252,18.2221)" d="M0 0H-.3C-.525 1.2-1.425 1.65-2.625 1.65-3.9 1.65-5.7 .9-5.7-1.575-5.7-3.6-4.125-5.1-2.4-5.1-1.275-5.1-.375-4.425-.15-3.3L.075-3.375-.15-4.875C-.601-5.175-1.875-5.4-2.55-5.4-5.101-5.4-6.75-3.825-6.75-1.575-6.75 .525-4.726 2.025-2.55 2.025-1.65 2.025-.825 1.725 .075 1.5Z" fill="#716f73"/>
<path transform="matrix(1,0,0,-1,137.0498,15.222099)" d="M0 0C-1.05 0-1.05-.45-1.05-1.95V-5.475C-1.05-7.125-2.175-8.4-4.5-8.4-6.675-8.4-8.024-7.425-8.024-5.325V-.825C-8.024 0-8.55 .075-9.225 .075V.375H-7.425-5.55V.075C-6.225 .075-6.75 .075-6.75-.825V-4.95C-6.75-6.375-6.225-7.8-4.2-7.8-2.024-7.8-1.8-6.225-1.8-5.4V-1.875C-1.8 .15-1.875 .075-3.075 .15V.45H-1.425-.075V0Z" fill="#716f73"/>
<path transform="matrix(1,0,0,-1,145.5254,23.546799)" d="M0 0H-.226L-6 5.85V2.024C-6 .6-5.851 .3-4.726 .3V0H-6.226-7.726V.3C-7.051 .3-6.525 .3-6.525 1.575V5.7C-6.525 6.6-6.9 6.9-7.875 6.9V7.2H-6.825-5.926C-5.476 6.6-4.426 5.625-3.226 4.35-2.325 3.375-1.275 2.399-.525 1.649V5.7C-.525 6.675-.75 6.9-1.875 6.9V7.2H-.375 .899V6.9C.225 6.9-.15 6.825-.15 5.85V0Z" fill="#716f73"/>
<path transform="matrix(1,0,0,-1,148.4502,17.322205)" d="M0 0C0 .75-.45 .75-.976 .75V1.05H.524 2.1V.75C1.5 .75 1.125 .75 1.125 0V-5.1C1.125-5.85 1.575-5.85 2.1-5.85V-6.149H.6-.976V-5.85C-.375-5.85 0-5.85 0-5.1Z" fill="#716f73"/>
<path transform="matrix(1,0,0,-1,153.25,19.421799)" d="M0 0C-.3 .675-.6 1.35-.825 1.95-1.05 2.55-1.275 2.775-1.95 2.775V3.075H-.375 1.05V2.775H.6C.45 2.775 .3 2.7 .3 2.55 .3 2.25 .9 .975 .975 .675L2.475-2.851 3.3-.825C3.6-.15 3.9 .525 4.125 1.125 4.2 1.425 4.5 1.95 4.5 2.325 4.5 2.775 4.05 2.775 3.675 2.775V3.075H4.95 6V2.775C5.625 2.775 5.4 2.625 5.25 2.4 5.175 2.325 4.425 .525 4.425 .45L2.4-4.2H2.025Z" fill="#716f73"/>
<path transform="matrix(1,0,0,-1,161.875,19.572205)" d="M0 0H1.425C2.325 0 2.325 .675 2.325 .9H2.55C2.55 .675 2.475 .15 2.475-.225 2.475-.525 2.55-1.05 2.55-1.35H2.325C2.325-.375 1.95-.375 1.125-.375H-.075V-2.1C-.075-3.225 0-3.524 1.05-3.524H1.725C2.775-3.45 3.3-3.375 3.75-2.25L4.05-2.325C3.9-2.85 3.675-3.375 3.6-3.899H.3-2.175V-3.6C-1.2-3.6-1.125-3.45-1.125-2.475V2.025C-1.125 2.85-1.275 2.925-2.175 2.925V3.225H.075 3.225V1.725L3 1.65C2.85 2.625 2.325 2.925 1.2 2.925H-.075V0Z" fill="#716f73"/>
<path transform="matrix(1,0,0,-1,173.9502,21.822205)" d="M0 0H.225C.375-.75 1.05-1.5 1.95-1.5 2.774-1.5 3.45-.975 3.45-.149 3.45 1.725 .225 1.2 .225 3.6 .225 4.95 1.274 5.625 2.55 5.625 3 5.625 3.45 5.55 3.899 5.475L4.05 4.2H3.825C3.675 4.95 3.225 5.325 2.399 5.325 1.575 5.325 1.05 4.8 1.05 4.05 1.05 2.175 4.425 2.7 4.425 .3 4.425-1.05 3.149-1.8 1.8-1.8 1.2-1.8 .6-1.649 .149-1.425Z" fill="#716f73"/>
<path transform="matrix(1,0,0,-1,180.25,17.322205)" d="M0 0C0 .75-.45 .75-.975 .75V1.05H.525 2.1V.75C1.5 .75 1.125 .75 1.125 0V-5.1C1.125-5.85 1.575-5.85 2.1-5.85V-6.149H.6-.975V-5.85C-.375-5.85 0-5.85 0-5.1Z" fill="#716f73"/>
<path transform="matrix(1,0,0,-1,190,17.697205)" d="M0 0H-.3C-.3 .525-.3 .9-1.2 .9H-2.85V-4.8C-2.85-5.55-2.4-5.55-1.875-5.55V-5.85H-3.375-4.95V-5.55C-4.35-5.55-3.975-5.55-3.975-4.8V.9H-5.4C-6.375 .9-6.45 .675-6.6 0H-6.9L-6.75 1.65H-6.525C-6.375 1.35-6.075 1.35-5.85 1.35H-.825C-.45 1.35-.15 1.425-.075 1.65H.15Z" fill="#716f73"/>
<path transform="matrix(1,0,0,-1,194.875,22.497002)" d="M0 0C0-.75 .45-.75 .975-.75V-1.05H-.6-2.1V-.75C-1.5-.75-1.125-.75-1.125 0V2.475L-3.45 5.4C-3.75 5.85-3.825 5.775-4.5 5.85V6.15H-3-1.65V5.85C-1.8 5.85-2.25 5.85-2.25 5.625-2.25 5.475-2.1 5.25-1.875 5.025L-.3 3 1.125 4.8C1.275 4.95 1.575 5.325 1.575 5.55 1.575 5.85 1.35 5.85 .825 5.85V6.15H2.1 3V5.85C2.55 5.85 2.325 5.55 2.1 5.25L0 2.625Z" fill="#716f73"/>
<path transform="matrix(1,0,0,-1,169.4502,16.646904)" d="M0 0C-.3 0-.45 0-.675-.075V-3.075C-.525-3.075-.3-3.15-.075-3.15 1.274-3.15 1.8-2.325 1.8-1.575 1.8-.675 1.274 0 0 0M-.675-3.45V-5.85C-.675-6.6-.226-6.6 .3-6.6V-6.9H-1.2-2.775V-6.6C-2.25-6.6-1.8-6.525-1.8-5.925V-.75C-1.8 0-2.25 0-2.775 0V.3H-1.125 .375C2.475 .3 2.925-.75 2.925-1.5 2.925-2.4 2.25-3 1.35-3.225 2.55-5.025 2.625-5.4 3.075-5.85 3.375-6.225 3.675-6.525 4.2-6.525V-6.825H3.375 2.475C1.649-5.7 .3-3.45 .3-3.45Z" fill="#716f73"/>
</g>
</g>
</svg>
